<svg height="229" width="357" xmlns="http://www.w3.org/2000/svg"><g fill="none" fill-rule="evenodd"><path d="M41 51.29L0 0h122.237L81 52.135v42.16H41z" fill="#161c38"/><ellipse cx="69.735" cy="98.309" fill="#2d4b91" rx="6.718" ry="6.691"/><ellipse cx="44.929" cy="24.191" fill="#fff" rx="6.718" ry="6.691"/><ellipse cx="69.735" cy="55.074" fill="#fff" rx="6.718" ry="6.691"/><ellipse cx="69.735" cy="31.397" fill="#ff8ef5" rx="6.718" ry="6.691"/><circle cx="92.5" cy="16.5" fill="#ff8ef5" r="6.5"/><path d="M317 75.871h20v119c0 18.778-15.222 34-34 34h-4.72c-18.777 0-34-15.222-34-34V104c0-7.732-6.267-14-14-14h-7.82c-7.731 0-14 6.268-14 14v87.785c0 18.778-15.222 34-34 34h-6.156c-18.778 0-34-15.222-34-34V113.97c0-10.707-8.68-19.387-19.387-19.387h-4.386c-8.284 0-15 6.716-15 15v78.937c0 20.58-16.684 37.265-37.266 37.265-20.7 0-37.265-16.565-37.265-37V80h20v108.785c0 9.389 7.611 17 17 17 9.8 0 17.53-7.73 17.53-17.265v-78.937c0-19.33 15.671-35 35-35h4.387c21.753 0 39.387 17.634 39.387 39.387v77.815c0 7.732 6.268 14 14 14h6.157c7.732 0 14-6.268 14-14V104c0-18.778 15.222-34 34-34h7.82c18.778 0 34 15.222 34 34v90.871c0 7.732 6.268 14 14 14H303c7.732 0 14-6.268 14-14z" fill="#6df0c2" fill-rule="nonzero"/><circle cx="50.5" cy="102.5" fill="#fff" r="6.5"/><path d="M337 75.871h20v119c0 18.778-15.222 34-34 34h-4.72c-18.777 0-34-15.222-34-34V104c0-7.732-6.267-14-14-14h-7.82c-7.731 0-14 6.268-14 14v87.785c0 18.778-15.222 34-34 34h-6.156c-18.778 0-34-15.222-34-34V113.97c0-10.707-8.68-19.387-19.387-19.387h-4.386c-8.284 0-15 6.716-15 15v78.937c0 20.58-16.684 37.265-37.266 37.265-20.7 0-37.265-16.565-37.265-37V80h20v108.785c0 9.389 7.611 17 17 17 9.8 0 17.53-7.73 17.53-17.265v-78.937c0-19.33 15.671-35 35-35h4.387c21.753 0 39.387 17.634 39.387 39.387v77.815c0 7.732 6.268 14 14 14h6.157c7.732 0 14-6.268 14-14V104c0-18.778 15.222-34 34-34h7.82c18.778 0 34 15.222 34 34v90.871c0 7.732 6.268 14 14 14H323c7.732 0 14-6.268 14-14z" fill="#4c7ef3" fill-rule="nonzero"/><g fill="#ff8ef5"><circle cx="70.5" cy="123.5" r="6.5"/><circle cx="70.5" cy="89.5" r="6.5"/></g></g></svg>